<?xml version="1.0" encoding="UTF-8" standalone="no"?>
<!DOCTYPE svg PUBLIC "-//W3C//DTD SVG 1.1//EN" "http://www.w3.org/Graphics/SVG/1.1/DTD/svg11.dtd">
<svg width="100%" height="100%" viewBox="0 0 8504 5226" version="1.1" xmlns="http://www.w3.org/2000/svg" xmlns:xlink="http://www.w3.org/1999/xlink" xml:space="preserve" xmlns:serif="http://www.serif.com/" style="fill-rule:evenodd;clip-rule:evenodd;stroke-linejoin:round;stroke-miterlimit:2;">
    <g id="Artboard1" transform="matrix(2.6501,0,0,2.46635,1465.03,1199.34)">
        <rect x="-552.819" y="-486.281" width="3208.73" height="2118.9" style="fill:none;"/>
        <g transform="matrix(0.315815,0.221903,-0.206516,0.339345,1298.53,233.849)">
            <path d="M1081.87,392.909C1081.87,278.613 989.073,185.818 874.776,185.818L339.952,185.818C225.655,185.818 132.861,278.613 132.861,392.909C132.861,507.206 225.655,600 339.952,600L874.776,600C989.073,600 1081.87,507.206 1081.87,392.909Z" style="fill:#121835"/>
        </g>
        <g transform="matrix(0.315815,0.221903,-0.206516,0.339345,1638.36,472.629)">
            <path d="M1081.87,392.909C1081.87,278.613 989.073,185.818 874.776,185.818L339.952,185.818C225.655,185.818 132.861,278.613 132.861,392.909C132.861,507.206 225.655,600 339.952,600L874.776,600C989.073,600 1081.87,507.206 1081.87,392.909Z" style="fill:#121835"/>
        </g>
        <g transform="matrix(0.315815,0.221903,-0.206516,0.339345,1374.45,554.752)">
            <path d="M1081.87,392.909C1081.87,278.613 989.073,185.818 874.776,185.818L339.952,185.818C225.655,185.818 132.861,278.613 132.861,392.909C132.861,507.206 225.655,600 339.952,600L874.776,600C989.073,600 1081.87,507.206 1081.87,392.909Z" style="fill:#121835"/>
        </g>
        <g transform="matrix(0.315815,0.221903,-0.206516,0.339345,1034.61,315.972)">
            <path d="M1081.87,392.909C1081.87,278.613 989.073,185.818 874.776,185.818L339.952,185.818C225.655,185.818 132.861,278.613 132.861,392.909C132.861,507.206 225.655,600 339.952,600L874.776,600C989.073,600 1081.87,507.206 1081.87,392.909Z" style="fill:#121835"/>
        </g>
        <g transform="matrix(0.315815,0.221903,-0.206516,0.339345,955.107,-7.44863)">
            <path d="M1081.87,392.909C1081.87,278.613 989.073,185.818 874.776,185.818L339.952,185.818C225.655,185.818 132.861,278.613 132.861,392.909C132.861,507.206 225.655,600 339.952,600L874.776,600C989.073,600 1081.87,507.206 1081.87,392.909Z" style="fill:#121835"/>
        </g>
        <g transform="matrix(0.315815,0.221903,-0.206516,0.339345,691.195,74.6748)">
            <path d="M1081.87,392.909C1081.87,278.613 989.073,185.818 874.776,185.818L339.952,185.818C225.655,185.818 132.861,278.613 132.861,392.909C132.861,507.206 225.655,600 339.952,600L874.776,600C989.073,600 1081.87,507.206 1081.87,392.909Z" style="fill:#121835"/>
        </g>
        <g transform="matrix(0.315815,0.221903,-0.206516,0.339345,1561.77,132.588)">
            <path d="M1081.87,392.909C1081.87,278.613 989.073,185.818 874.776,185.818L339.952,185.818C225.655,185.818 132.861,278.613 132.861,392.909C132.861,507.206 225.655,600 339.952,600L874.776,600C989.073,600 1081.87,507.206 1081.87,392.909Z" style="fill:#121835"/>
        </g>
        <g transform="matrix(0.315815,0.221903,-0.206516,0.339345,1218.35,-108.709)">
            <path d="M1081.87,392.909C1081.87,278.613 989.073,185.818 874.776,185.818L339.952,185.818C225.655,185.818 132.861,278.613 132.861,392.909C132.861,507.206 225.655,600 339.952,600L874.776,600C989.073,600 1081.87,507.206 1081.87,392.909Z" style="fill:#121835"/>
        </g>
        <g transform="matrix(0.315815,0.221903,-0.206516,0.339345,1482.27,-190.833)">
            <path d="M1081.87,392.909C1081.87,278.613 989.073,185.818 874.776,185.818L339.952,185.818C225.655,185.818 132.861,278.613 132.861,392.909C132.861,507.206 225.655,600 339.952,600L874.776,600C989.073,600 1081.87,507.206 1081.87,392.909Z" style="fill:#121835"/>
        </g>
        <g transform="matrix(0.315815,0.221903,-0.206516,0.339345,615.271,-246.229)">
            <path d="M1081.87,392.909C1081.87,278.613 989.073,185.818 874.776,185.818L339.952,185.818C225.655,185.818 132.861,278.613 132.861,392.909C132.861,507.206 225.655,600 339.952,600L874.776,600C989.073,600 1081.87,507.206 1081.87,392.909Z" style="fill:#121835"/>
        </g>
        <g transform="matrix(0.315815,0.221903,-0.206516,0.339345,732.806,388.276)">
            <path d="M1081.87,392.909C1081.87,278.613 989.073,185.818 874.776,185.818L339.952,185.818C225.655,185.818 132.861,278.613 132.861,392.909C132.861,507.206 225.655,600 339.952,600L874.776,600C989.073,600 1081.87,507.206 1081.87,392.909Z" style="fill:#121835"/>
        </g>
        <g transform="matrix(0.315815,0.221903,-0.206516,0.339345,812.312,711.697)">
            <path d="M1081.87,392.909C1081.87,278.613 989.073,185.818 874.776,185.818L339.952,185.818C225.655,185.818 132.861,278.613 132.861,392.909C132.861,507.206 225.655,600 339.952,600L874.776,600C989.073,600 1081.87,507.206 1081.87,392.909Z" style="fill:#121835"/>
        </g>
        <g transform="matrix(0.315815,0.221903,-0.206516,0.339345,1076.22,629.573)">
            <path d="M1081.87,392.909C1081.87,278.613 989.073,185.818 874.776,185.818L339.952,185.818C225.655,185.818 132.861,278.613 132.861,392.909C132.861,507.206 225.655,600 339.952,600L874.776,600C989.073,600 1081.87,507.206 1081.87,392.909Z" style="fill:#121835"/>
        </g>
        <g transform="matrix(0.315815,0.221903,-0.206516,0.339345,468.894,470.399)">
            <path d="M1081.87,392.909C1081.87,278.613 989.073,185.818 874.776,185.818L339.952,185.818C225.655,185.818 132.861,278.613 132.861,392.909C132.861,507.206 225.655,600 339.952,600L874.776,600C989.073,600 1081.87,507.206 1081.87,392.909Z" style="fill:#121835"/>
        </g>
        <g transform="matrix(0.315815,0.221903,-0.206516,0.339345,392.97,149.496)">
            <path d="M1081.87,392.909C1081.87,278.613 989.073,185.818 874.776,185.818L339.952,185.818C225.655,185.818 132.861,278.613 132.861,392.909C132.861,507.206 225.655,600 339.952,600L874.776,600C989.073,600 1081.87,507.206 1081.87,392.909Z" style="fill:#121835"/>
        </g>
        <g transform="matrix(0.315815,0.221903,-0.206516,0.339345,351.359,-164.105)">
            <path d="M1081.87,392.909C1081.87,278.613 989.073,185.818 874.776,185.818L339.952,185.818C225.655,185.818 132.861,278.613 132.861,392.909C132.861,507.206 225.655,600 339.952,600L874.776,600C989.073,600 1081.87,507.206 1081.87,392.909Z" style="fill:#121835"/>
        </g>
        <g transform="matrix(0.315815,0.221903,-0.206516,0.339345,549.065,812.958)">
            <path d="M1081.87,392.909C1081.87,278.613 989.073,185.818 874.776,185.818L339.952,185.818C225.655,185.818 132.861,278.613 132.861,392.909C132.861,507.206 225.655,600 339.952,600L874.776,600C989.073,600 1081.87,507.206 1081.87,392.909Z" style="fill:#121835"/>
        </g>
        <g transform="matrix(0.315815,0.221903,-0.206516,0.339345,205.647,571.66)">
            <path d="M1081.87,392.909C1081.87,278.613 989.073,185.818 874.776,185.818L339.952,185.818C225.655,185.818 132.861,278.613 132.861,392.909C132.861,507.206 225.655,600 339.952,600L874.776,600C989.073,600 1081.87,507.206 1081.87,392.909Z" style="fill:#121835"/>
        </g>
        <g transform="matrix(0.315815,0.221903,-0.206516,0.339345,129.058,231.619)">
            <path d="M1081.87,392.909C1081.87,278.613 989.073,185.818 874.776,185.818L339.952,185.818C225.655,185.818 132.861,278.613 132.861,392.909C132.861,507.206 225.655,600 339.952,600L874.776,600C989.073,600 1081.87,507.206 1081.87,392.909Z" style="fill:#121835"/>
        </g>
        <g transform="matrix(0.315815,0.221903,-0.206516,0.339345,1416.06,868.354)">
            <path d="M1081.87,392.909C1081.87,278.613 989.073,185.818 874.776,185.818L339.952,185.818C225.655,185.818 132.861,278.613 132.861,392.909C132.861,507.206 225.655,600 339.952,600L874.776,600C989.073,600 1081.87,507.206 1081.87,392.909Z" style="fill:#121835"/>
        </g>
        <g transform="matrix(0.377344,0,0,0.405457,358.249,115.346)">
            <path d="M711.362,1156.06L689.206,873.618L1088.02,1111.1L711.362,1156.06Z" style="fill:none;"/>
        </g>
    </g>
    <g transform="matrix(0.836943,0.54729,-0.54729,0.836943,6504.49,2115.26)">
        <path d="M1081.87,392.909C1081.87,278.613 989.073,185.818 874.776,185.818L339.952,185.818C225.655,185.818 132.861,278.613 132.861,392.909C132.861,507.206 225.655,600 339.952,600L874.776,600C989.073,600 1081.87,507.206 1081.87,392.909Z" style="fill:#121835"/>
    </g>
    <g transform="matrix(0.836943,0.54729,-0.54729,0.836943,3793.19,342.307)">
        <path d="M1081.87,392.909C1081.87,278.613 989.073,185.818 874.776,185.818L339.952,185.818C225.655,185.818 132.861,278.613 132.861,392.909C132.861,507.206 225.655,600 339.952,600L874.776,600C989.073,600 1081.87,507.206 1081.87,392.909Z" style="fill:#121835"/>
    </g>
    <g transform="matrix(0.836943,0.54729,-0.54729,0.836943,6303.28,1323.8)">
        <path d="M1081.87,392.909C1081.87,278.613 989.073,185.818 874.776,185.818L339.952,185.818C225.655,185.818 132.861,278.613 132.861,392.909C132.861,507.206 225.655,600 339.952,600L874.776,600C989.073,600 1081.87,507.206 1081.87,392.909Z" style="fill:#121835"/>
    </g>
    <g transform="matrix(0.836943,0.54729,-0.54729,0.836943,4492.59,139.762)">
        <path d="M1081.87,392.909C1081.87,278.613 989.073,185.818 874.776,185.818L339.952,185.818C225.655,185.818 132.861,278.613 132.861,392.909C132.861,507.206 225.655,600 339.952,600L874.776,600C989.073,600 1081.87,507.206 1081.87,392.909Z" style="fill:#121835"/>
    </g>
    <g transform="matrix(0.836943,0.54729,-0.54729,0.836943,7203.88,1912.72)">
        <path d="M1081.87,392.909C1081.87,278.613 989.073,185.818 874.776,185.818L339.952,185.818C225.655,185.818 132.861,278.613 132.861,392.909C132.861,507.206 225.655,600 339.952,600L874.776,600C989.073,600 1081.87,507.206 1081.87,392.909Z" style="fill:#121835"/>
    </g>
    <g transform="matrix(0.836943,0.54729,-0.54729,0.836943,3820.71,3793.29)">
        <path d="M1081.87,392.909C1081.87,278.613 989.073,185.818 874.776,185.818L339.952,185.818C225.655,185.818 132.861,278.613 132.861,392.909C132.861,507.206 225.655,600 339.952,600L874.776,600C989.073,600 1081.87,507.206 1081.87,392.909Z" style="fill:#121835"/>
    </g>
    <g transform="matrix(0.836943,0.54729,-0.54729,0.836943,3121.31,3995.84)">
        <path d="M1081.87,392.909C1081.87,278.613 989.073,185.818 874.776,185.818L339.952,185.818C225.655,185.818 132.861,278.613 132.861,392.909C132.861,507.206 225.655,600 339.952,600L874.776,600C989.073,600 1081.87,507.206 1081.87,392.909Z" style="fill:#121835"/>
    </g>
    <g transform="matrix(0.836943,0.54729,-0.54729,0.836943,2220.71,3406.92)">
        <path d="M1081.87,392.909C1081.87,278.613 989.073,185.818 874.776,185.818L339.952,185.818C225.655,185.818 132.861,278.613 132.861,392.909C132.861,507.206 225.655,600 339.952,600L874.776,600C989.073,600 1081.87,507.206 1081.87,392.909Z" style="fill:#121835"/>
    </g>
    <g transform="matrix(0.836943,0.54729,-0.54729,0.836943,1310.62,2811.8)">
        <path d="M1081.87,392.909C1081.87,278.613 989.073,185.818 874.776,185.818L339.952,185.818C225.655,185.818 132.861,278.613 132.861,392.909C132.861,507.206 225.655,600 339.952,600L874.776,600C989.073,600 1081.87,507.206 1081.87,392.909Z" style="fill:#121835"/>
    </g>
    <g transform="matrix(0.836943,0.54729,-0.54729,0.836943,4518.34,3543.55)">
        <path d="M1081.87,392.909C1081.87,278.613 989.073,185.818 874.776,185.818L339.952,185.818C225.655,185.818 132.861,278.613 132.861,392.909C132.861,507.206 225.655,600 339.952,600L874.776,600C989.073,600 1081.87,507.206 1081.87,392.909Z" style="fill:#121835"/>
    </g>
    <g transform="matrix(0.836943,0.54729,-0.54729,0.836943,1109.41,2020.34)">
        <path d="M1081.87,392.909C1081.87,278.613 989.073,185.818 874.776,185.818L339.952,185.818C225.655,185.818 132.861,278.613 132.861,392.909C132.861,507.206 225.655,600 339.952,600L874.776,600C989.073,600 1081.87,507.206 1081.87,392.909Z" style="fill:#121835"/>
    </g>
    <g transform="matrix(0.836943,0.54729,-0.54729,0.836943,410.017,2222.88)">
        <path d="M1081.87,392.909C1081.87,278.613 989.073,185.818 874.776,185.818L339.952,185.818C225.655,185.818 132.861,278.613 132.861,392.909C132.861,507.206 225.655,600 339.952,600L874.776,600C989.073,600 1081.87,507.206 1081.87,392.909Z" style="fill:#121835"/>
    </g>
</svg>
